<?xml version="1.0" encoding="UTF-8"?>
<svg version="1.1" xmlns="http://www.w3.org/2000/svg" width="512" height="512">
<path d="M0 0 C0.91215271 0.00337372 1.82430542 0.00674744 2.76409912 0.01022339 C17.56782486 0.08918133 31.87242698 0.93369551 46.3125 4.4375 C47.80571777 4.79956543 47.80571777 4.79956543 49.32910156 5.16894531 C63.91969514 8.84084208 77.73548366 13.978424 91.3125 20.4375 C92.06611816 20.79569824 92.81973633 21.15389648 93.59619141 21.52294922 C129.09974328 38.70462382 159.95630072 68.13758099 179.3125 102.4375 C179.89596191 103.46302979 179.89596191 103.46302979 180.49121094 104.50927734 C189.36548978 120.26614481 195.93664284 136.53275784 200.625 154 C200.97062988 155.27182129 200.97062988 155.27182129 201.32324219 156.56933594 C205.47168206 172.92551959 206.87189918 189.30136792 206.75 206.125 C206.74662628 207.03715271 206.74325256 207.94930542 206.73977661 208.88909912 C206.66081867 223.69282486 205.81630449 237.99742698 202.3125 252.4375 C202.07112305 253.43297852 201.82974609 254.42845703 201.58105469 255.45410156 C197.90915792 270.04469514 192.771576 283.86048366 186.3125 297.4375 C185.95430176 298.19111816 185.59610352 298.94473633 185.22705078 299.72119141 C168.04537618 335.22474328 138.61241901 366.08130072 104.3125 385.4375 C103.62881348 385.82647461 102.94512695 386.21544922 102.24072266 386.61621094 C86.48385519 395.49048978 70.21724216 402.06164284 52.75 406.75 C51.90211914 406.98041992 51.05423828 407.21083984 50.18066406 407.44824219 C33.82448041 411.59668206 17.44863208 412.99689918 0.625 412.875 C-0.28715271 412.87162628 -1.19930542 412.86825256 -2.13909912 412.86477661 C-16.94282486 412.78581867 -31.24742698 411.94130449 -45.6875 408.4375 C-46.68297852 408.19612305 -47.67845703 407.95474609 -48.70410156 407.70605469 C-63.29469514 404.03415792 -77.11048366 398.896576 -90.6875 392.4375 C-91.44111816 392.07930176 -92.19473633 391.72110352 -92.97119141 391.35205078 C-128.47474328 374.17037618 -159.33130072 344.73741901 -178.6875 310.4375 C-179.07647461 309.75381348 -179.46544922 309.07012695 -179.86621094 308.36572266 C-188.74048978 292.60885519 -195.31164284 276.34224216 -200 258.875 C-200.23041992 258.02711914 -200.46083984 257.17923828 -200.69824219 256.30566406 C-204.84668206 239.94948041 -206.24689918 223.57363208 -206.125 206.75 C-206.12162628 205.83784729 -206.11825256 204.92569458 -206.11477661 203.98590088 C-206.03581867 189.18217514 -205.19130449 174.87757302 -201.6875 160.4375 C-201.32543457 158.94428223 -201.32543457 158.94428223 -200.95605469 157.42089844 C-197.28415792 142.83030486 -192.146576 129.01451634 -185.6875 115.4375 C-185.32930176 114.68388184 -184.97110352 113.93026367 -184.60205078 113.15380859 C-167.42037618 77.65025672 -137.98741901 46.79369928 -103.6875 27.4375 C-103.00381348 27.04852539 -102.32012695 26.65955078 -101.61572266 26.25878906 C-85.85885519 17.38451022 -69.59224216 10.81335716 -52.125 6.125 C-51.27711914 5.89458008 -50.42923828 5.66416016 -49.55566406 5.42675781 C-33.19948041 1.27831794 -16.82363208 -0.12189918 0 0 Z " fill="#2ADC39" transform="translate(255.6875,49.5625)"/>
<path d="M0 0 C1.9641687 0.00132935 1.9641687 0.00132935 3.96801758 0.00268555 C14.57718393 0.13135671 24.18201243 1.56028668 34.375 4.375 C35.38691406 4.601875 36.39882813 4.82875 37.44140625 5.0625 C67.59431235 12.08501088 93.89810071 36.18203473 109.88671875 61.796875 C111.13599545 63.9565079 112.27286898 66.13676817 113.375 68.375 C113.85453125 69.33535156 114.3340625 70.29570312 114.828125 71.28515625 C128.53947485 99.7812192 132.26394232 132.77115492 123.375 163.375 C123.06151611 164.46675537 123.06151611 164.46675537 122.74169922 165.58056641 C116.5226838 186.46434627 105.22703566 203.5808576 90.375 219.375 C89.8490625 219.96539062 89.323125 220.55578125 88.78125 221.1640625 C73.85277962 237.23501786 52.29186431 247.766089 31.375 253.375 C29.50328125 253.88353516 29.50328125 253.88353516 27.59375 254.40234375 C8.75997365 258.55572736 -15.13665065 258.72954926 -33.625 253.375 C-34.33188965 253.17632324 -35.0387793 252.97764648 -35.76708984 252.77294922 C-58.09277236 246.37844457 -76.01630101 234.36118404 -92.625 218.375 C-93.26824219 217.79492188 -93.91148437 217.21484375 -94.57421875 216.6171875 C-110.54237093 201.80291111 -120.22726609 180.06862599 -125.625 159.375 C-126.13353516 157.54582031 -126.13353516 157.54582031 -126.65234375 155.6796875 C-134.6774125 121.43446324 -126.04140516 85.86593195 -107.85546875 56.51953125 C-96.93542597 40.75107843 -81.58720666 25.49817051 -64.625 16.375 C-63.65264404 15.84543701 -63.65264404 15.84543701 -62.66064453 15.30517578 C-54.53139545 10.97387436 -46.1781487 7.69373171 -37.375 5 C-36.20674683 4.64180176 -36.20674683 4.64180176 -35.01489258 4.27636719 C-23.48159753 0.9547013 -11.96460178 -0.01468808 0 0 Z " fill="#2DE53D" transform="translate(256.625,127.625)"/>
<path d="M0 0 C0.95132813 -0.01611328 1.90265625 -0.03222656 2.8828125 -0.04882812 C8.45537905 -0.05264495 13.02521049 0.55523871 18.21899414 2.61230469 C21.16559311 3.62815345 24.0913575 3.80276832 27.1796875 4.06640625 C30.02888127 4.405084 32.56965192 5.31516118 35.25 6.3125 C35.86488281 6.46074219 36.47976563 6.60898438 37.11328125 6.76171875 C43.72767549 8.46670886 49.76520247 11.27107024 55.25 15.3125 C54.59 15.6425 53.93 15.9725 53.25 16.3125 C51.33238419 15.64271074 49.44100914 14.897704 47.5625 14.125 C15.74776472 1.92935148 -23.98694104 4.042945 -55 17.625 C-57.60540173 18.8110701 -60.18159676 20.04852716 -62.75 21.3125 C-63.71679688 21.78260498 -63.71679688 21.78260498 -64.703125 22.26220703 C-78.80827565 29.19841486 -90.34225989 38.2977735 -101.375 49.4375 C-101.87613312 49.94072784 -102.37726624 50.44395569 -102.89358521 50.96243286 C-115.25695202 63.43229754 -123.30702456 76.49097957 -130.75 92.3125 C-131.74 92.3125 -132.73 92.3125 -133.75 92.3125 C-135.90028304 93.26228897 -135.90028304 93.26228897 -137.75 94.3125 C-136.60993252 90.36611258 -135.60598116 88.16848116 -132.75 85.3125 C-132.01919734 83.33503397 -131.35578253 81.33177511 -130.75 79.3125 C-129.43607596 75.04224686 -127.25909158 72.47992407 -124.33984375 69.2109375 C-121.34212036 65.63134643 -118.80081039 61.61229992 -116.859375 57.36328125 C-111.62891389 47.69429504 -100.60790061 37.71614153 -91.75 31.3125 C-90.41966293 30.96740266 -89.08616103 30.63431142 -87.75 30.3125 C-85.8950675 29.10444411 -84.08547032 27.82542441 -82.3125 26.5 C-80.92224609 25.46939453 -80.92224609 25.46939453 -79.50390625 24.41796875 C-77.69955506 23.03847189 -75.9157724 21.63154916 -74.15625 20.1953125 C-72.04548639 18.54370851 -70.0631234 17.22323352 -67.6875 16 C-67.03652344 15.65324219 -66.38554687 15.30648437 -65.71484375 14.94921875 C-63.32808356 14.17577559 -62.11067239 14.59639645 -59.75 15.3125 C-57.55885118 14.55693144 -55.93204762 13.45578628 -54.1171875 12.02734375 C-52.36510036 10.66587344 -50.68803424 9.39551913 -48.75 8.3125 C-46.1875 8.6875 -46.1875 8.6875 -43.75 9.3125 C-40.88796011 8.08591148 -38.30420641 6.63850377 -35.625 5.0625 C-33.25705471 4.11532188 -32.15052554 4.61557323 -29.75 5.3125 C-28.76 4.9825 -27.77 4.6525 -26.75 4.3125 C-25.76 4.8075 -25.76 4.8075 -24.75 5.3125 C-24.75 4.6525 -24.75 3.9925 -24.75 3.3125 C-24.15832031 3.26351562 -23.56664062 3.21453125 -22.95703125 3.1640625 C-21.77173828 3.05191406 -21.77173828 3.05191406 -20.5625 2.9375 C-19.78519531 2.86789063 -19.00789063 2.79828125 -18.20703125 2.7265625 C-15.7366077 2.42649338 -15.7366077 2.42649338 -13.62109375 1.29296875 C-9.13745304 -0.2381793 -4.70362447 -0.01567875 0 0 Z " fill="#11C511" transform="translate(255.75,106.6875)"/>
<path d="M0 0 C2.10456861 -0.00970742 4.20815973 -0.04078414 6.3125 -0.07226562 C13.46833273 -0.12745254 19.20446242 0.21322085 25.7421875 3.24023438 C27.06904624 3.45236979 28.40356013 3.62347679 29.7421875 3.74023438 C34.08413366 4.16508234 37.73986007 5.56726151 41.7421875 7.24023438 C42.38671875 7.47871094 43.03125 7.7171875 43.6953125 7.96289062 C47.46315034 9.41145013 49.68240737 10.7264918 51.7421875 14.24023438 C49.01259606 13.56578362 46.29536096 12.85615179 43.58203125 12.11914062 C42.78732422 11.90580078 41.99261719 11.69246094 41.17382812 11.47265625 C39.53754695 11.03315395 37.90209526 10.59054929 36.26757812 10.14453125 C25.11476176 7.16627315 14.68428147 5.87572604 3.1171875 5.92773438 C2.12357712 5.93146561 2.12357712 5.93146561 1.1098938 5.93527222 C-9.29463779 5.9956206 -19.19206941 6.43602249 -29.2578125 9.24023438 C-30.06976074 9.46598145 -30.88170898 9.69172852 -31.71826172 9.92431641 C-63.94429862 19.20613316 -92.65236412 39.57318331 -109.2578125 69.24023438 C-111.38996412 73.17873288 -113.39233125 77.1680253 -115.2578125 81.24023438 C-116.2478125 81.24023438 -117.2378125 81.24023438 -118.2578125 81.24023438 C-119.2478125 81.73523438 -119.2478125 81.73523438 -120.2578125 82.24023438 C-119.9071875 81.47710937 -119.5565625 80.71398437 -119.1953125 79.92773438 C-117.93420366 77.19264059 -117.93420366 77.19264059 -119.2578125 74.24023438 C-117.13939702 67.78869632 -112.87756907 61.98673876 -107.2578125 58.24023438 C-106.15144855 55.84954704 -106.15144855 55.84954704 -105.2578125 53.24023438 C-100.3660816 41.86577272 -86.57260551 29.86694652 -76.2578125 23.24023438 C-75.5875 23.08296875 -74.9171875 22.92570312 -74.2265625 22.76367188 C-71.62232217 22.07127464 -70.47055347 20.75352415 -68.5703125 18.86523438 C-63.82143458 14.53432886 -58.73069502 12.24023438 -52.2578125 12.24023438 C-50.57508264 11.61522043 -48.91150607 10.93846055 -47.2578125 10.24023438 C-46.59910156 10.01078125 -45.94039063 9.78132812 -45.26171875 9.54492188 C-44.55917969 9.3 -43.85664063 9.05507812 -43.1328125 8.80273438 C-42.47023438 8.57714844 -41.80765625 8.3515625 -41.125 8.11914062 C-39.15886946 7.33436595 -39.15886946 7.33436595 -37.74609375 5.62304688 C-37.00939453 4.93855469 -37.00939453 4.93855469 -36.2578125 4.24023438 C-32.5703125 4.55273438 -32.5703125 4.55273438 -29.2578125 5.24023438 C-28.9278125 4.25023438 -28.5978125 3.26023437 -28.2578125 2.24023438 C-27.7009375 2.44648437 -27.1440625 2.65273437 -26.5703125 2.86523438 C-23.55701912 3.35387655 -22.04268863 2.43375272 -19.2578125 1.24023438 C-12.87338327 -0.06804091 -6.48594763 0.0180835 0 0 Z " fill="#10C40F" transform="translate(254.2578125,122.759765625)"/>
<path d="M0 0 C-0.33 0.598125 -0.66 1.19625 -1 1.8125 C-2.20787988 4.05386471 -2.20787988 4.05386471 -2 7 C-2.51159668 7.24008789 -3.02319336 7.48017578 -3.55029297 7.72753906 C-20.62449348 15.81391694 -36.72437626 24.81635165 -50.21777344 38.24121094 C-52.37244701 40.36754908 -54.56650216 42.45050997 -56.7578125 44.5390625 C-74.0810098 61.22591743 -85.10901253 78.12838817 -95.77001953 99.63427734 C-97 102 -97 102 -99 105 C-99.33 104.34 -99.66 103.68 -100 103 C-101.98 103.495 -101.98 103.495 -104 104 C-102.23237834 99.30900406 -99.88812337 95.08085961 -97.4375 90.71875 C-95.68327921 87.4009846 -94.36290939 84.03688398 -93.125 80.5 C-91.81344837 77.58544083 -89.99160665 75.48950831 -88 73 C-87.72285156 72.25105469 -87.44570312 71.50210938 -87.16015625 70.73046875 C-85.72734294 67.35829198 -83.68923871 64.6661507 -81.4375 61.8125 C-80.98842285 61.23862549 -80.5393457 60.66475098 -80.07666016 60.07348633 C-75.93737577 54.83481852 -71.60584874 49.83614118 -67 45 C-66.43539062 44.4028418 -65.87078125 43.80568359 -65.2890625 43.19042969 C-56.70369122 34.16421206 -47.95116244 26.17118676 -37.65722656 19.14453125 C-36.11072392 18.07646932 -34.59677709 16.96169028 -33.0859375 15.84375 C-28.40560032 12.39359208 -24.69443274 10.42360819 -19 9 C-14.18374687 6.8420684 -9.55251693 4.35261928 -5 1.6875 C-2 0 -2 0 0 0 Z " fill="#0FC70D" transform="translate(187,83)"/>
<path d="M0 0 C-1.75 5.75 -1.75 5.75 -4 8 C-5.25354689 8.64699194 -6.53253737 9.24545715 -7.82421875 9.8125 C-15.88681275 13.43810815 -23.71400236 17.11641443 -31.0625 22.0625 C-31.89817505 22.62420898 -31.89817505 22.62420898 -32.75073242 23.19726562 C-59.38043261 41.65822595 -80.2149459 66.71460943 -92 97 C-93.98 96.67 -95.96 96.34 -98 96 C-96.91257943 93.15597697 -95.73992413 90.50874558 -94.3125 87.8125 C-93.879375 86.884375 -93.44625 85.95625 -93 85 C-93.33 84.34 -93.66 83.68 -94 83 C-90.98963876 77.11392626 -87.27121843 71.98971369 -82.4140625 67.53515625 C-80.09792436 65.02067479 -78.64266687 62.07034706 -77.078125 59.05078125 C-76 57 -76 57 -74 54 C-73.690625 53.34 -73.38125 52.68 -73.0625 52 C-71.94020584 49.88744629 -70.6820969 48.6820969 -69 47 C-68.58363281 46.25878906 -68.16726562 45.51757812 -67.73828125 44.75390625 C-65.72152788 41.55882506 -63.30164057 39.00823559 -60.625 36.375 C-60.15578125 35.89804688 -59.6865625 35.42109375 -59.203125 34.9296875 C-56.3409173 32.0832931 -53.48820174 29.99982571 -50 28 C-48.19108207 26.48818086 -46.47342889 24.90835661 -44.74609375 23.3046875 C-43 22 -43 22 -41.0234375 21.52734375 C-38.38389364 20.83943174 -37.15395221 19.55783235 -35.1875 17.6875 C-31.13844461 14.022277 -27.09405915 10.57297392 -21.57421875 9.55078125 C-18.80708663 8.95872415 -16.92498252 8.00126604 -14.5 6.5625 C-11.38886283 4.76403532 -8.36116226 3.28515028 -5 2 C-2 0 -2 0 0 0 Z " fill="#0FC70D" transform="translate(198,99)"/>
<path d="M0 0 C0.495 1.485 0.495 1.485 1 3 C0.04060332 4.69036558 -0.96642853 6.35394174 -2 8 C-2.33 8.99 -2.66 9.98 -3 11 C-4.00370824 14.01112473 -5.31133474 16.32628001 -7 19 C-8.08660912 21.08860523 -9.08063635 23.18639403 -10.015625 25.34765625 C-17.5852111 41.99595478 -30.14128567 56.20246302 -43 69 C-43.74515869 69.74902588 -43.74515869 69.74902588 -44.50537109 70.51318359 C-59.3899669 85.3172405 -77.42734153 95.96840064 -96.17529297 105.09790039 C-97.9101319 105.95557096 -99.62381805 106.85564183 -101.3359375 107.7578125 C-104 109 -104 109 -106.375 108.6875 C-106.91125 108.460625 -107.4475 108.23375 -108 108 C-107.06455006 105.7225494 -106.4667959 104.29738016 -104.35864258 102.9543457 C-103.38640747 102.5689563 -103.38640747 102.5689563 -102.39453125 102.17578125 C-101.66564697 101.87414062 -100.9367627 101.5725 -100.18579102 101.26171875 C-99.40260498 100.94847656 -98.61941895 100.63523437 -97.8125 100.3125 C-84.78793581 94.81147419 -73.19098954 87.64221213 -62 79 C-61.15566406 78.360625 -60.31132812 77.72125 -59.44140625 77.0625 C-35.4170756 58.21428814 -16.91780437 33.40095854 -5.4140625 5.125 C-4 2 -4 2 -1.8125 0.5625 C-1.214375 0.376875 -0.61625 0.19125 0 0 Z " fill="#37BD4E" transform="translate(428,320)"/>
<path d="M0 0 C1.30582031 -0.00257812 2.61164063 -0.00515625 3.95703125 -0.0078125 C4.97095947 -0.00152832 4.97095947 -0.00152832 6.00537109 0.00488281 C8.05726947 0.01555715 10.10828545 0.00498401 12.16015625 -0.0078125 C13.46855469 -0.00523438 14.77695312 -0.00265625 16.125 0 C17.90753174 0.00338379 17.90753174 0.00338379 19.72607422 0.00683594 C23.44994916 0.28461971 26.64060534 1.14900361 30.1953125 2.265625 C32.18882253 2.65466458 34.18915916 3.01066191 36.1953125 3.328125 C37.23042969 3.49441406 38.26554687 3.66070312 39.33203125 3.83203125 C41.55361838 4.16845167 43.77997463 4.47344954 46.0078125 4.765625 C49.53257916 5.31852957 52.78220127 6.22433683 56.1953125 7.265625 C57.49662109 7.62527344 57.49662109 7.62527344 58.82421875 7.9921875 C59.73042969 8.24742188 60.63664062 8.50265625 61.5703125 8.765625 C62.85035156 9.12140625 62.85035156 9.12140625 64.15625 9.484375 C66.1953125 10.265625 66.1953125 10.265625 67.1953125 12.265625 C68.1853125 11.935625 69.1753125 11.605625 70.1953125 11.265625 C70.1953125 11.925625 70.1953125 12.585625 70.1953125 13.265625 C70.8140625 13.348125 71.4328125 13.430625 72.0703125 13.515625 C74.1953125 14.265625 74.1953125 14.265625 75.328125 16.3125 C75.61429688 16.95703125 75.90046875 17.6015625 76.1953125 18.265625 C75.12796875 17.87890625 74.060625 17.4921875 72.9609375 17.09375 C30.74077126 2.18066025 -15.24592032 2.3002956 -57.1171875 18.34765625 C-59.8046875 19.265625 -59.8046875 19.265625 -62.8046875 19.265625 C-61.61875912 15.57607005 -59.43473543 14.00815063 -56.08203125 12.21484375 C-51.11783363 10.1457185 -45.2191854 8.265625 -39.8046875 8.265625 C-39.4746875 7.275625 -39.1446875 6.285625 -38.8046875 5.265625 C-38.1446875 5.595625 -37.4846875 5.925625 -36.8046875 6.265625 C-36.4746875 5.935625 -36.1446875 5.605625 -35.8046875 5.265625 C-33.0394598 4.44027381 -30.36061115 4.07777466 -27.4921875 3.828125 C-24.43106907 3.52100621 -21.98655816 3.02420978 -18.9921875 2.140625 C-15.73594463 1.24675441 -14.88379236 1.44453037 -11.8046875 2.265625 C-11.0813623 1.95141602 -10.35803711 1.63720703 -9.61279297 1.31347656 C-6.25450685 0.06032372 -3.58102034 0.0068108 0 0 Z " fill="#11C212" transform="translate(247.8046875,69.734375)"/>
<path d="M0 0 C0 4.51432766 -2.00576492 8.2208425 -4.1875 12.125 C-5.19074348 14.01709594 -5.19074348 14.01709594 -4.75 16.3125 C-5.07896147 19.84883575 -6.82774782 21.3369691 -9.17578125 23.87109375 C-11.27617982 26.32230836 -12.94950567 28.90512846 -14.6875 31.625 C-29.22478966 53.70522297 -54.94881682 82.27343904 -82 88 C-83.32 88 -84.64 88 -86 88 C-86.33 88.99 -86.66 89.98 -87 91 C-91.21052632 93 -91.21052632 93 -93 93 C-94.34136367 93.65035814 -95.67532254 94.3162955 -97 95 C-96.4375 92.6953125 -96.4375 92.6953125 -95 90 C-92.634795 88.73895958 -90.49215018 87.79475389 -88 86.875 C-53.58805748 72.96796967 -24.42553795 44.68751475 -8.59863281 11.27783203 C-6.29405799 6.41441013 -4.50765483 3.00510322 0 0 Z M-84 88 C-83.34 88.33 -82.68 88.66 -82 89 C-82.99 89 -83.98 89 -85 89 C-84.67 88.67 -84.34 88.34 -84 88 Z " fill="#37BD4E" transform="translate(409,317)"/>
<path d="M0 0 C-3.10839384 3.41717468 -6.90415401 5.50687636 -10.8203125 7.890625 C-34.40465811 23.53625968 -51.10195717 44.70835029 -63 70 C-63.99 70 -64.98 70 -66 70 C-68.15028304 70.94978897 -68.15028304 70.94978897 -70 72 C-68.85993252 68.05361258 -67.85598116 65.85598116 -65 63 C-64.26919734 61.02253397 -63.60578253 59.01927511 -63 57 C-61.68607596 52.72974686 -59.50909158 50.16742407 -56.58984375 46.8984375 C-53.59212036 43.31884643 -51.05081039 39.29979992 -49.109375 35.05078125 C-43.87891389 25.38179504 -32.85790061 15.40364153 -24 9 C-22.66906306 8.65722348 -21.33553942 8.32438149 -20 8 C-16.91769774 6.03275344 -13.95677154 3.92514799 -10.97265625 1.8125 C-6.92216196 -0.65718378 -4.53483623 -1.51161208 0 0 Z " fill="#0FC60D" transform="translate(188,129)"/>
<path d="M0 0 C1.29421875 -0.020625 2.5884375 -0.04125 3.921875 -0.0625 C10.4470975 -0.08907932 15.97733562 0.148077 22.07275391 2.55517578 C24.37982058 3.44462468 26.54013738 3.68325298 29 3.8125 C33.20183019 4.14761529 36.84735409 4.93059875 40.875 6.25 C42.25171875 6.65025391 42.25171875 6.65025391 43.65625 7.05859375 C50.57105719 9.16272069 56.11286628 11.88474718 61.875 16.25 C61.215 16.58 60.555 16.91 59.875 17.25 C58.16407652 16.60028222 56.48173315 15.8753686 54.8125 15.125 C48.05688917 12.41670361 41.25811546 10.90335556 34.125 9.5 C33.06015381 9.28972168 31.99530762 9.07944336 30.89819336 8.86279297 C2.85237463 3.51636069 -25.61189089 5.43568883 -52.76171875 14.19921875 C-55.55411638 15.07164031 -58.24740696 15.74930982 -61.125 16.25 C-59.73224746 12.8727555 -58.30226069 11.37929695 -55.1875 9.5 C-54.49785156 9.07203125 -53.80820313 8.6440625 -53.09765625 8.203125 C-51.125 7.25 -51.125 7.25 -48.125 7.25 C-47.795 6.92 -47.465 6.59 -47.125 6.25 C-44.79166667 6.25 -42.45833333 6.25 -40.125 6.25 C-39.795 5.59 -39.465 4.93 -39.125 4.25 C-38.12984375 4.27964844 -37.1346875 4.30929688 -36.109375 4.33984375 C-32.01983815 4.2476287 -28.37421053 3.65169177 -24.375 2.8125 C-23.71628906 2.67779297 -23.05757812 2.54308594 -22.37890625 2.40429688 C-14.60669228 0.78837003 -8.01731157 0.03137891 0 0 Z M-42.125 4.25 C-41.135 4.745 -41.135 4.745 -40.125 5.25 C-41.115 5.745 -41.115 5.745 -42.125 6.25 C-42.125 5.59 -42.125 4.93 -42.125 4.25 Z " fill="#18CA1E" transform="translate(257.125,88.75)"/>
<path d="M0 0 C1.32 0.33 2.64 0.66 4 1 C3.33333333 2.66666667 2.66666667 4.33333333 2 6 C1.71640625 6.7321875 1.4328125 7.464375 1.140625 8.21875 C-12.41506722 41.27235569 -38.94669966 66.73281442 -71 82 C-72.32636088 82.36007735 -73.65821651 82.70250049 -75 83 C-75.845625 83.53625 -76.69125 84.0725 -77.5625 84.625 C-78.7690625 85.305625 -78.7690625 85.305625 -80 86 C-80.99 85.67 -81.98 85.34 -83 85 C-83.495 85.495 -83.495 85.495 -84 86 C-84.99 86.99 -84.99 86.99 -86 88 C-86.99 87.67 -87.98 87.34 -89 87 C-89 86.01 -89 85.02 -89 84 C-88.46745605 83.79955078 -87.93491211 83.59910156 -87.38623047 83.39257812 C-66.57128061 75.49122853 -49.30214472 65.38447432 -33 50 C-32.26265625 49.32710938 -31.5253125 48.65421875 -30.765625 47.9609375 C-17.18063272 35.09855119 -6.08163842 17.69203903 0 0 Z " fill="#36BD4E" transform="translate(389,308)"/>
<path d="M0 0 C0.99 0.33 1.98 0.66 3 1 C2.01 1.33 1.02 1.66 0 2 C-0.33 2.66 -0.66 3.32 -1 4 C-1.99 3.505 -1.99 3.505 -3 3 C-3.33 3.66 -3.66 4.32 -4 5 C-4.99 4.505 -4.99 4.505 -6 4 C-6.33 4.66 -6.66 5.32 -7 6 C-7.99 5.505 -7.99 5.505 -9 5 C-9.2784375 5.9590625 -9.2784375 5.9590625 -9.5625 6.9375 C-11 9 -11 9 -14.375 9.6875 C-15.57125 9.790625 -16.7675 9.89375 -18 10 C-19.33783393 10.31478446 -20.67203709 10.64587656 -22 11 C-23.1446875 11.2165625 -23.1446875 11.2165625 -24.3125 11.4375 C-27.11732196 11.98152136 -27.11732196 11.98152136 -30.25 13 C-33.70403665 13.92107644 -36.85395108 14.38254449 -40.3984375 14.65625 C-42.71945418 14.96293088 -44.85286715 15.44937553 -47.12109375 16.01171875 C-52.32847516 17.19404516 -57.36313248 17.34330367 -62.6875 17.3125 C-63.65429688 17.30976074 -64.62109375 17.30702148 -65.6171875 17.30419922 C-72.29503255 17.20724119 -78.26764214 16.44962078 -84.74609375 14.796875 C-89.43183851 13.64934567 -94.16304898 13.05943632 -98.94140625 12.4296875 C-101.65660479 12.04824198 -104.3187719 11.56919926 -107 11 C-107 10.34 -107 9.68 -107 9 C-107.78375 8.87625 -108.5675 8.7525 -109.375 8.625 C-113.9353326 7.83873576 -118.46567093 6.92299584 -123 6 C-122.67 5.01 -122.34 4.02 -122 3 C-121.030625 3.25394531 -120.06125 3.50789063 -119.0625 3.76953125 C-82.38267775 13.24080349 -35.2015438 17.6007719 0 0 Z " fill="#34C04A" transform="translate(319,425)"/>
<path d="M0 0 C1.32 0.33 2.64 0.66 4 1 C3.71125 1.70125 3.4225 2.4025 3.125 3.125 C1.97524896 5.95788982 1.97524896 5.95788982 1.1484375 8.76953125 C-8.96192957 37.20923727 -36.51167585 61.19644605 -63 74 C-70.23648649 77.2545045 -70.23648649 77.2545045 -74 76 C-73.04582931 73.64281772 -72.42155698 72.27032841 -70.25097656 70.87841797 C-69.55456055 70.58596191 -68.85814453 70.29350586 -68.140625 69.9921875 C-67.36146729 69.65074707 -66.58230957 69.30930664 -65.77954102 68.95751953 C-64.94479248 68.60028809 -64.11004395 68.24305664 -63.25 67.875 C-33.42438575 54.39522592 -12.93987879 29.53039377 0 0 Z " fill="#37BD4E" transform="translate(375,303)"/>
<path d="M0 0 C-0.99 0.33 -1.98 0.66 -3 1 C-3.29390625 1.65742188 -3.5878125 2.31484375 -3.890625 2.9921875 C-5 5 -5 5 -7.171875 5.7578125 C-8.02265625 5.87898438 -8.8734375 6.00015625 -9.75 6.125 C-13.697823 6.71838444 -17.21722177 7.72479929 -21 9 C-30.00744387 11.29663481 -38.20712163 12.24877807 -47.52734375 12.04296875 C-52.04422979 11.98707927 -56.54693245 12.19844784 -61 13 C-61.33 13.33 -61.66 13.66 -62 14 C-68.5076299 14.42672983 -73.85948696 13.43049208 -80.1328125 11.73046875 C-83.76068809 10.80620072 -87.27987479 10.39159213 -91 10 C-92.67056149 9.68676972 -94.33958925 9.36321485 -96 9 C-96 8.34 -96 7.68 -96 7 C-97.32 7.33 -98.64 7.66 -100 8 C-100 7.34 -100 6.68 -100 6 C-102.31 6 -104.62 6 -107 6 C-107 5.34 -107 4.68 -107 4 C-108.65 3.67 -110.3 3.34 -112 3 C-112.33 2.01 -112.66 1.02 -113 0 C-111.30692784 0.42326804 -109.61387335 0.84660682 -107.92089844 1.27026367 C-106.46091691 1.63493067 -105.00062419 1.99835381 -103.54003906 2.3605957 C-100.24710683 3.17877604 -96.96243235 4.01018934 -93.6875 4.8984375 C-66.72610996 12.14072578 -36.07870314 9.1717459 -9.7109375 0.89404297 C-8.87691406 0.63510254 -8.04289062 0.37616211 -7.18359375 0.109375 C-6.44681396 -0.12813477 -5.71003418 -0.36564453 -4.95092773 -0.61035156 C-3 -1 -3 -1 0 0 Z " fill="#2FBB43" transform="translate(314,409)"/>
<path d="M0 0 C0.66 0 1.32 0 2 0 C0.67840884 4.97476998 -0.65170391 9.94014105 -2.20703125 14.84765625 C-5.53674034 25.46086615 -7.57687634 35.97411666 -9 47 C-9.13277344 47.97066406 -9.26554687 48.94132812 -9.40234375 49.94140625 C-11.03635136 64.24456872 -10.18919395 78.72276975 -8.4375 92.9609375 C-8.03425839 96.32390956 -7.91388379 99.60917436 -8 103 C-8.66 103 -9.32 103 -10 103 C-10.33 104.32 -10.66 105.64 -11 107 C-12.99841311 95.67565906 -14.3327106 85.49266906 -13 74 C-12.73776788 67.73355663 -13.08650805 61.56221248 -13.5625 55.3125 C-14.01128812 48.96535371 -13.80646104 43.69484986 -12.44921875 37.4765625 C-12.16498047 36.15785156 -12.16498047 36.15785156 -11.875 34.8125 C-11.68679687 34.01457031 -11.49859375 33.21664062 -11.3046875 32.39453125 C-10.96125548 29.69550783 -11.33817799 27.62398445 -12 25 C-11.01 24.67 -10.02 24.34 -9 24 C-9.66 23.67 -10.32 23.34 -11 23 C-10 20 -10 20 -9 19 C-9 18.01 -9 17.02 -9 16 C-6.83133113 10.25836029 -4.39035185 4.39035185 0 0 Z " fill="#0FC20E" transform="translate(86,188)"/>
<path d="M0 0 C0.66 0 1.32 0 2 0 C1.36191041 3.65129045 0.38213279 7.1333121 -0.71386719 10.671875 C-10.40481887 42.04937293 -10.52079344 74.32977702 -1.671875 105.91015625 C-1 109 -1 109 -2 112 C-2.99 112.495 -2.99 112.495 -4 113 C-6.58912316 108.60927864 -6.80502536 103.97118442 -7.4375 98.99609375 C-7.82905476 95.832136 -7.82905476 95.832136 -10 93 C-10.37890625 90.00390625 -10.37890625 90.00390625 -10.5625 86.5625 C-10.77495091 82.1376169 -10.77495091 82.1376169 -11.5546875 77.796875 C-12.17257032 75.30366363 -11.62018119 73.09126836 -11.26171875 70.58203125 C-10.42993066 62.3758831 -10.85698047 54.06720827 -11.625 45.875 C-12.28554123 37.66009987 -11.25646536 29.80505971 -8.8125 21.9375 C-8.01378152 19.04982549 -7.90322711 17.74193222 -9 15 C-8.01 14.67 -7.02 14.34 -6 14 C-6.66 13.67 -7.32 13.34 -8 13 C-6.62826314 10.16082371 -5.11518234 7.48176773 -3.4375 4.8125 C-3.00308594 4.11769531 -2.56867188 3.42289063 -2.12109375 2.70703125 C-1 1 -1 1 0 0 Z M-10 19 C-9.01 19.495 -9.01 19.495 -8 20 C-8.99 20.495 -8.99 20.495 -10 21 C-10 20.34 -10 19.68 -10 19 Z " fill="#10C20F" transform="translate(103,196)"/>
<path d="M0 0 C-0.99 0.33 -1.98 0.66 -3 1 C-3.33 1.99 -3.66 2.98 -4 4 C-5.6476038 4.71247732 -7.31763529 5.37400383 -9 6 C-9.9590625 6.8353125 -9.9590625 6.8353125 -10.9375 7.6875 C-13.85819103 9.54612156 -15.67460534 8.61078678 -19 8 C-20.68949614 8.60648579 -22.35636866 9.27840576 -24 10 C-25.175625 10.165 -26.35125 10.33 -27.5625 10.5 C-30.8445463 10.7720136 -30.8445463 10.7720136 -32.8684082 12.02832031 C-35.59177729 13.26975989 -37.56000094 13.16888183 -40.54296875 13.046875 C-41.61740234 13.00433594 -42.69183594 12.96179688 -43.79882812 12.91796875 C-44.91708984 12.86253906 -46.03535156 12.80710937 -47.1875 12.75 C-48.83588867 12.69005859 -48.83588867 12.69005859 -50.51757812 12.62890625 C-58.34081844 12.28369469 -65.44061064 11.04238342 -72.9375 8.875 C-75.78966664 7.90842629 -75.78966664 7.90842629 -78 8 C-78 7.34 -78 6.68 -78 6 C-79.4540625 5.814375 -79.4540625 5.814375 -80.9375 5.625 C-81.948125 5.41875 -82.95875 5.2125 -84 5 C-84.33 4.34 -84.66 3.68 -85 3 C-83.56195268 3.11853752 -82.12459 3.24537135 -80.6875 3.375 C-79.48673828 3.47941406 -79.48673828 3.47941406 -78.26171875 3.5859375 C-75 4 -75 4 -72.73266602 4.47216797 C-64.67327358 6.14180106 -56.77367376 6.39568001 -48.5625 6.375 C-47.86156219 6.37545319 -47.16062439 6.37590637 -46.43844604 6.37637329 C-31.97843973 6.34899588 -18.54186703 4.5574205 -4.96069336 -0.51831055 C-3 -1 -3 -1 0 0 Z " fill="#32BC47" transform="translate(303,377)"/>
<path d="M0 0 C0.33 0 0.66 0 1 0 C6 20.04651163 6 20.04651163 6 29 C6.33 29.99 6.66 30.98 7 32 C7.10925482 34.73651183 7.16405437 37.44669739 7.16796875 40.18359375 C7.17129715 40.99433853 7.17462555 41.80508331 7.17805481 42.64039612 C7.18311995 44.3610884 7.18546326 46.08179051 7.18530273 47.80249023 C7.18746581 50.39649446 7.20556003 52.99005673 7.22460938 55.58398438 C7.25509132 64.59248259 6.9319349 73.15682457 5 82 C4.82364014 82.87495117 4.64728027 83.74990234 4.46557617 84.65136719 C3.34280568 90.16454123 1.59273701 94.99972147 -1 100 C-1.66 100 -2.32 100 -3 100 C-3.33 100.99 -3.66 101.98 -4 103 C-5.3639305 98.9082085 -3.98000898 96.02679996 -2.75 92.0625 C5.33819595 64.07874866 4.89698162 35.26572336 -1.3125 6.9375 C-2 3 -2 3 0 0 Z " fill="#35BB4C" transform="translate(414,208)"/>
<path d="M0 0 C-1.0625 1.9375 -1.0625 1.9375 -3 4 C-5.31974234 4.41755362 -7.65785793 4.7355646 -10 5 C-11.46860035 5.46898734 -12.92696658 5.97091086 -14.375 6.5 C-18.22376842 7.8526232 -21.77597849 8.41464994 -25.828125 8.75 C-28.30430995 8.9776127 -28.30430995 8.9776127 -31.8125 10.0625 C-42.56975608 12.85220099 -53.39744032 10.24128589 -64 8 C-66.82820897 7.41512959 -69.5688912 6.92759567 -72.4375 6.5625 C-75.81622687 6.02901681 -78.79463504 5.1726945 -82 4 C-81.67 3.01 -81.34 2.02 -81 1 C-78.24968307 1.47740217 -75.49975 1.95685264 -72.75 2.4375 C-71.97269531 2.57220703 -71.19539062 2.70691406 -70.39453125 2.84570312 C-69.26337891 3.04389648 -69.26337891 3.04389648 -68.109375 3.24609375 C-67.41811523 3.36654053 -66.72685547 3.4869873 -66.01464844 3.61108398 C-64 4 -64 4 -62.03369141 4.53442383 C-44.60578352 8.52422219 -22.06551931 4.50712436 -5.14453125 -0.546875 C-3 -1 -3 -1 0 0 Z " fill="#34C14A" transform="translate(300,394)"/>
<path d="M0 0 C-0.391875 1.258125 -0.78375 2.51625 -1.1875 3.8125 C-2.71478472 8.939813 -4.16111374 14.08707972 -5.5625 19.25 C-5.77221436 19.99870361 -5.98192871 20.74740723 -6.19799805 21.51879883 C-9.79044366 34.93409417 -10.27127344 48.09493763 -10.125 61.875 C-10.1149383 63.54556748 -10.10581815 65.21614091 -10.09765625 66.88671875 C-10.07592258 70.92462978 -10.04157357 74.96224652 -10 79 C-10.33 79 -10.66 79 -11 79 C-11 77.35 -11 75.7 -11 74 C-11.66 74 -12.32 74 -13 74 C-13.495 74.99 -13.495 74.99 -14 76 C-14.97879266 68.65905507 -15.15056411 61.46330929 -15.125 54.0625 C-15.12886719 52.94681641 -15.13273437 51.83113281 -15.13671875 50.68164062 C-15.1254945 41.10174135 -14.43708046 32.26090573 -12 23 C-12 22.01 -12 21.02 -12 20 C-11.54625 19.29875 -11.0925 18.5975 -10.625 17.875 C-9.09605537 15.16994411 -8.64720971 13.5501421 -8.125 10.5625 C-7.29029987 6.33240952 -5.11490633 0 0 0 Z " fill="#0FC40D" transform="translate(124,199)"/>
<path d="M0 0 C0 0.66 0 1.32 0 2 C-1.58066374 3.22606617 -3.21763517 4.37978665 -4.875 5.5 C-15.03202648 12.37402601 -15.03202648 12.37402601 -21.7109375 22.171875 C-21.80632812 22.77515625 -21.90171875 23.3784375 -22 24 C-22.33 24.66 -22.66 25.32 -23 26 C-22.34 26.33 -21.68 26.66 -21 27 C-21.60134766 27.60521484 -21.60134766 27.60521484 -22.21484375 28.22265625 C-30.23321281 36.78649259 -36.03626494 47.42508617 -41 58 C-41.99 58 -42.98 58 -44 58 C-44.99 58.495 -44.99 58.495 -46 59 C-45.649375 58.236875 -45.29875 57.47375 -44.9375 56.6875 C-43.67639116 53.95240621 -43.67639116 53.95240621 -45 51 C-42.88158452 44.54846195 -38.61975657 38.74650438 -33 35 C-31.89363605 32.60931266 -31.89363605 32.60931266 -31 30 C-27.48968985 21.83767688 -9.64173852 0 0 0 Z M-11 14 C-10.34 14.33 -9.68 14.66 -9 15 C-12.63 18.63 -16.26 22.26 -20 26 C-20 23 -20 23 -18.03125 20.73828125 C-16.77828125 19.53751953 -16.77828125 19.53751953 -15.5 18.3125 C-14.6646875 17.50425781 -13.829375 16.69601563 -12.96875 15.86328125 C-12.3190625 15.24839844 -11.669375 14.63351563 -11 14 Z " fill="#0FCA0D" transform="translate(180,146)"/>
<path d="M0 0 C4.65907199 6.98860798 5.93221747 17.64580371 6 26 C5.67 26.66 5.34 27.32 5 28 C5.66 28 6.32 28 7 28 C6.85913398 30.60452271 6.71251536 33.20850197 6.5625 35.8125 C6.50352539 36.91948242 6.50352539 36.91948242 6.44335938 38.04882812 C6.25618965 41.23071342 6.01279207 43.96162378 5 47 C5.66 47.33 6.32 47.66 7 48 C7.14305379 56.7898606 6.56946385 64.53588379 4 73 C2.62592771 77.65060643 2.62592771 77.65060643 1.5625 82.375 C1.376875 82.91125 1.19125 83.4475 1 84 C-0.485 84.495 -0.485 84.495 -2 85 C-1.67 85.99 -1.34 86.98 -1 88 C-2.485 88.495 -2.485 88.495 -4 89 C-3.13493762 84.58309326 -2.26570323 80.17079928 -1.26953125 75.78125 C4.27978628 51.2177734 3.64854739 28.37332778 -1.86328125 3.86328125 C-1.90839844 3.24839844 -1.95351563 2.63351563 -2 2 C-1.34 1.34 -0.68 0.68 0 0 Z " fill="#35BC4C" transform="translate(396,214)"/>
<path d="M0 0 C-0.97244949 5.84670249 -2.94375188 11.44585445 -4.74023438 17.08007812 C-8.30881043 28.63588891 -9.33602678 39.68013567 -9.25 51.75 C-9.24613281 53.06371582 -9.24226562 54.37743164 -9.23828125 55.73095703 C-9.15614627 64.95631204 -8.62570057 73.91349501 -7 83 C-8.32 83 -9.64 83 -11 83 C-11.06058594 82.25234375 -11.12117188 81.5046875 -11.18359375 80.734375 C-11.26738281 79.74953125 -11.35117188 78.7646875 -11.4375 77.75 C-11.51871094 76.77546875 -11.59992188 75.8009375 -11.68359375 74.796875 C-11.89834302 72.15696146 -11.89834302 72.15696146 -12.50708008 70.30883789 C-13.21888631 66.97473607 -13.18308334 63.65595441 -13.203125 60.26171875 C-13.20882507 59.50389603 -13.21452515 58.7460733 -13.22039795 57.96528625 C-13.22983588 56.35732408 -13.23637714 54.74934267 -13.24023438 53.14135742 C-13.24981557 50.7338436 -13.28079555 48.32723093 -13.3125 45.91992188 C-13.38079759 35.87168736 -12.37542648 26.77322564 -10 17 C-9.75596436 15.91525391 -9.51192871 14.83050781 -9.26049805 13.71289062 C-6.1205742 0 -6.1205742 0 0 0 Z " fill="#0FC00D" transform="translate(138,204)"/>
<path d="M0 0 C0.969375 -0.020625 1.93875 -0.04125 2.9375 -0.0625 C8.58981861 -0.09288881 13.21037193 0.45004341 18.4777832 2.54760742 C21.42019952 3.56962019 24.34360514 3.74046019 27.4296875 4.00390625 C30.27888127 4.342584 32.81965192 5.25266118 35.5 6.25 C36.42232422 6.47236328 36.42232422 6.47236328 37.36328125 6.69921875 C43.97767549 8.40420886 50.01520247 11.20857024 55.5 15.25 C54.84 15.58 54.18 15.91 53.5 16.25 C51.58238419 15.58021074 49.69100914 14.835204 47.8125 14.0625 C32.5918152 8.22790416 14.92713301 6.09720738 -1.3125 6.296875 C-4.5 6.25 -4.5 6.25 -5.5 5.25 C-7.17884238 4.8568352 -8.86850045 4.50914548 -10.5625 4.1875 C-11.48160156 4.01089844 -12.40070313 3.83429688 -13.34765625 3.65234375 C-14.05792969 3.51957031 -14.76820313 3.38679688 -15.5 3.25 C-14.860625 2.940625 -14.22125 2.63125 -13.5625 2.3125 C-8.88892021 -0.09510171 -5.49176639 0.02830807 0 0 Z " fill="#19C520" transform="translate(255.5,106.75)"/>
<path d="M0 0 C1.26392578 -0.020625 2.52785156 -0.04125 3.83007812 -0.0625 C10.83491807 -0.09179363 16.05744649 0.36148102 22.4375 3.25 C23.76443226 3.46167507 25.09889714 3.63296182 26.4375 3.75 C30.77944616 4.17484796 34.43517257 5.57702714 38.4375 7.25 C39.08203125 7.48847656 39.7265625 7.72695312 40.390625 7.97265625 C44.15846284 9.42121575 46.37771987 10.73625743 48.4375 14.25 C45.70790856 13.57554925 42.99067346 12.86591742 40.27734375 12.12890625 C39.48263672 11.91556641 38.68792969 11.70222656 37.86914062 11.48242188 C36.23285945 11.04291957 34.59740776 10.60031491 32.96289062 10.15429688 C20.80154481 6.90672017 9.27873966 5.87691308 -3.25 5.625 C-4.83790981 5.58672539 -6.42580097 5.54766853 -8.01367188 5.5078125 C-11.86312588 5.41286684 -15.71267636 5.32847018 -19.5625 5.25 C-19.5625 4.92 -19.5625 4.59 -19.5625 4.25 C-16.0975 3.755 -16.0975 3.755 -12.5625 3.25 C-13.2225 2.59 -13.8825 1.93 -14.5625 1.25 C-11.83418371 -1.47831629 -3.67031399 0.01465927 0 0 Z " fill="#17BA1E" transform="translate(257.5625,122.75)"/>
<path d="M0 0 C1.75 0.3046875 1.75 0.3046875 4 0.875 C7.23998526 1.64765149 10.37095536 2.19593648 13.6875 2.5 C17.36677988 2.85708782 20.50057167 3.78280754 24 5 C25.6396875 5.2165625 25.6396875 5.2165625 27.3125 5.4375 C31.70633437 6.10774592 35.93281112 7.17587452 40 9 C40.495 9.99 40.495 9.99 41 11 C41.99 10.67 42.98 10.34 44 10 C44 10.66 44 11.32 44 12 C44.61875 12.0825 45.2375 12.165 45.875 12.25 C48 13 48 13 49.1328125 15.046875 C49.41898437 15.69140625 49.70515625 16.3359375 50 17 C48.93265625 16.61328125 47.8653125 16.2265625 46.765625 15.828125 C31.18142407 10.32344305 15.57199042 6.99836424 -0.90991211 5.68261719 C-4.77521665 5.3549422 -7.59569802 4.80227752 -11 3 C-13.0742625 2.71519194 -15.16071439 2.51125776 -17.25 2.375 C-18.32765625 2.30023438 -19.4053125 2.22546875 -20.515625 2.1484375 C-21.33546875 2.09945312 -22.1553125 2.05046875 -23 2 C-23 1.67 -23 1.34 -23 1 C-22.3387915 1.00523682 -21.67758301 1.01047363 -20.99633789 1.01586914 C-18.01840149 1.03657656 -15.04048018 1.04964012 -12.0625 1.0625 C-11.02158203 1.07087891 -9.98066406 1.07925781 -8.90820312 1.08789062 C-7.91884766 1.09111328 -6.92949219 1.09433594 -5.91015625 1.09765625 C-4.99371338 1.10289307 -4.07727051 1.10812988 -3.13305664 1.11352539 C-1.01636977 1.23921211 -1.01636977 1.23921211 0 0 Z " fill="#1DC027" transform="translate(274,71)"/>
<path d="M0 0 C0.33 0.66 0.66 1.32 1 2 C0.67 2.99 0.34 3.98 0 5 C0.33 5.99 0.66 6.98 1 8 C1.30476959 12.97790338 0.61838146 17.36165568 -0.43359375 22.1875 C-1.06476649 25.32159911 -1.50132235 28.45813034 -1.9375 31.625 C-2.7217036 36.80809567 -3.72474333 41.26746613 -6 46 C-7.485 46.495 -7.485 46.495 -9 47 C-8.67 47.99 -8.34 48.98 -8 50 C-8.66 50 -9.32 50 -10 50 C-9.67 50.99 -9.34 51.98 -9 53 C-9.66 53 -10.32 53 -11 53 C-10.67 53.99 -10.34 54.98 -10 56 C-10.66 56 -11.32 56 -12 56 C-12.33 56.99 -12.66 57.98 -13 59 C-14.33427206 54.99718382 -13.26049306 53.37383303 -11.8125 49.4375 C-7.15202672 36.1402461 -4.70538973 22.69962396 -3.39453125 8.6953125 C-2.80589497 3.18194692 -2.80589497 3.18194692 -2 1 C-1.34 0.67 -0.68 0.34 0 0 Z " fill="#37BD4E" transform="translate(439,263)"/>
<path d="M0 0 C0.969375 0.25394531 1.93875 0.50789063 2.9375 0.76953125 C18.60508787 4.81513401 34.18449514 7.98022651 50.41015625 8.31640625 C51.68952309 8.3475779 51.68952309 8.3475779 52.99473572 8.37937927 C55.68391911 8.44407199 58.3731889 8.503381 61.0625 8.5625 C62.90039909 8.60576184 64.73828986 8.64937839 66.57617188 8.69335938 C71.05069571 8.79966934 75.52530527 8.90115562 80 9 C78 11 78 11 76.00210571 11.24723816 C75.1836618 11.24581314 74.3652179 11.24438812 73.52197266 11.24291992 C72.59405914 11.24599655 71.66614563 11.24907318 70.71011353 11.25224304 C69.70491669 11.24505753 68.69971985 11.23787201 67.6640625 11.23046875 C66.63316498 11.23001053 65.60226746 11.22955231 64.54013062 11.2290802 C62.35616915 11.22605504 60.17220989 11.21816091 57.98828125 11.20581055 C54.64575545 11.187613 51.30350754 11.18530045 47.9609375 11.18554688 C45.84114344 11.18062942 43.72135126 11.17480011 41.6015625 11.16796875 C40.09983994 11.16629951 40.09983994 11.16629951 38.56777954 11.16459656 C37.16645279 11.15502678 37.16645279 11.15502678 35.73681641 11.14526367 C34.91678131 11.14145187 34.09674622 11.13764008 33.25186157 11.13371277 C31.0350111 11.00207892 29.13445534 10.59143182 27 10 C24.91928634 9.63075418 22.83568287 9.27755699 20.75 8.9375 C19.67234375 8.76089844 18.5946875 8.58429688 17.484375 8.40234375 C16.66453125 8.26957031 15.8446875 8.13679688 15 8 C15 7.34 15 6.68 15 6 C13.824375 5.814375 13.824375 5.814375 12.625 5.625 C8.0646674 4.83873576 3.53432907 3.92299584 -1 3 C-0.67 2.01 -0.34 1.02 0 0 Z " fill="#2EB841" transform="translate(197,428)"/>
<path d="M0 0 C2.10704332 0.00318026 4.21270801 -0.02040027 6.31958008 -0.0456543 C7.65746893 -0.04792552 8.99536156 -0.04863161 10.33325195 -0.04760742 C11.54779053 -0.05058838 12.7623291 -0.05356934 14.01367188 -0.05664062 C14.97120361 0.06622314 15.92873535 0.18908691 16.9152832 0.31567383 C17.5752832 1.30567383 18.2352832 2.29567383 18.9152832 3.31567383 C15.9452832 3.31567383 12.9752832 3.31567383 9.9152832 3.31567383 C15.3602832 3.81067383 15.3602832 3.81067383 20.9152832 4.31567383 C20.9152832 4.64567383 20.9152832 4.97567383 20.9152832 5.31567383 C19.6777832 5.35325806 19.6777832 5.35325806 18.4152832 5.39160156 C-3.34997267 6.03322135 -3.34997267 6.03322135 -25.0847168 7.31567383 C-25.0847168 6.98567383 -25.0847168 6.65567383 -25.0847168 6.31567383 C-23.4347168 5.98567383 -21.7847168 5.65567383 -20.0847168 5.31567383 C-22.7247168 5.31567383 -25.3647168 5.31567383 -28.0847168 5.31567383 C-28.0847168 4.32567383 -28.0847168 3.33567383 -28.0847168 2.31567383 C-26.60640458 2.12155202 -25.12702364 1.93555252 -23.6472168 1.75317383 C-22.82350586 1.64875977 -21.99979492 1.5443457 -21.15112305 1.43676758 C-20.46920898 1.39680664 -19.78729492 1.3568457 -19.0847168 1.31567383 C-18.7547168 1.64567383 -18.4247168 1.97567383 -18.0847168 2.31567383 C-17.40368896 1.99187744 -16.72266113 1.66808105 -16.02099609 1.33447266 C-10.85638791 -0.45748793 -5.41249325 -0.01716234 0 0 Z " fill="#17CB1D" transform="translate(254.084716796875,69.684326171875)"/>
<path d="M0 0 C7.96222612 -0.25012229 15.21925297 0.34330643 23 2 C23.86753906 2.15597656 24.73507812 2.31195313 25.62890625 2.47265625 C35.29586127 4.22894274 43.66034982 7.73825235 52 13 C52.495 13.99 52.495 13.99 53 15 C51.43662827 14.54464901 49.87434151 14.08557224 48.3125 13.625 C47.00732422 13.24214844 47.00732422 13.24214844 45.67578125 12.8515625 C43 12 43 12 40.68530273 11.02514648 C37.91229829 9.96651882 35.26837176 9.32745544 32.359375 8.74609375 C31.28816406 8.53146484 30.21695312 8.31683594 29.11328125 8.09570312 C28.00339844 7.87849609 26.89351563 7.66128906 25.75 7.4375 C24.10837891 7.10588867 24.10837891 7.10588867 22.43359375 6.76757812 C17.61107434 5.81173745 12.85025476 4.93088481 7.953125 4.47265625 C4.51776719 4.06190695 2.90172038 3.60645383 0 2 C0 1.34 0 0.68 0 0 Z " fill="#1EC028" transform="translate(266,91)"/>
<path d="M0 0 C0.99 0.495 0.99 0.495 2 1 C1.01 1.495 1.01 1.495 0 2 C0 1.34 0 0.68 0 0 Z M18 -1 C18.495 0.98 18.495 0.98 19 3 C17.9958606 3.19577637 17.9958606 3.19577637 16.97143555 3.39550781 C13.87493265 4.00462095 10.78128534 4.62723685 7.6875 5.25 C6.63498047 5.45496094 5.58246094 5.65992187 4.49804688 5.87109375 C-1.83501521 7.15719251 -7.73812658 8.83352845 -13.74682617 11.22167969 C-16 12 -16 12 -19 12 C-17.60724746 8.6227555 -16.17726069 7.12929695 -13.0625 5.25 C-12.37285156 4.82203125 -11.68320313 4.3940625 -10.97265625 3.953125 C-9 3 -9 3 -6 3 C-5.67 2.67 -5.34 2.34 -5 2 C-2.66666667 2 -0.33333333 2 2 2 C2.33 1.34 2.66 0.68 3 0 C4.093125 0.020625 5.18625 0.04125 6.3125 0.0625 C10.39512476 -0.00669703 13.87896611 -1.11137929 18 -1 Z " fill="#11C411" transform="translate(215,93)"/>
<path d="M0 0 C-0.99 0.33 -1.98 0.66 -3 1 C-3.29390625 1.65742188 -3.5878125 2.31484375 -3.890625 2.9921875 C-5 5 -5 5 -7.171875 5.7578125 C-8.02265625 5.87898438 -8.8734375 6.00015625 -9.75 6.125 C-13.69882516 6.71853507 -17.2131906 7.73615826 -21 9 C-23.47026246 9.58092472 -25.9504099 10.12096332 -28.4375 10.625 C-29.69433594 10.88539063 -30.95117188 11.14578125 -32.24609375 11.4140625 C-35.90081887 11.98451907 -39.30832727 12.10479587 -43 12 C-43 11.67 -43 11.34 -43 11 C-41.35 10.67 -39.7 10.34 -38 10 C-40.97 9.505 -40.97 9.505 -44 9 C-44 8.67 -44 8.34 -44 8 C-42.19982422 7.77957031 -42.19982422 7.77957031 -40.36328125 7.5546875 C-29.83331945 6.16818387 -19.85771824 4.08551352 -9.71801758 0.89404297 C-8.88165771 0.63510254 -8.04529785 0.37616211 -7.18359375 0.109375 C-6.44681396 -0.12813477 -5.71003418 -0.36564453 -4.95092773 -0.61035156 C-3 -1 -3 -1 0 0 Z " fill="#35BF4C" transform="translate(314,409)"/>
<path d="M0 0 C0.33 0 0.66 0 1 0 C1.04998439 4.23175554 1.08599164 8.46334796 1.10986328 12.6953125 C1.11983031 14.13056436 1.13340887 15.56579642 1.15087891 17.00097656 C1.39955205 37.97728744 1.39955205 37.97728744 -3 46 C-4.485 46.495 -4.485 46.495 -6 47 C-5.67 47.99 -5.34 48.98 -5 50 C-5.66 50 -6.32 50 -7 50 C-6.67 50.99 -6.34 51.98 -6 53 C-6.66 53 -7.32 53 -8 53 C-8.33 53.99 -8.66 54.98 -9 56 C-10.21389207 52.3583238 -9.67502348 51.6199487 -8.3125 48.125 C-5.08634553 39.01982537 -3.65925841 29.49138493 -2 20 C-1.34 20 -0.68 20 0 20 C0 13.4 0 6.8 0 0 Z " fill="#37BD4E" transform="translate(386,247)"/>
<path d="M0 0 C2.75031693 0.47740217 5.50025 0.95685264 8.25 1.4375 C9.02730469 1.57220703 9.80460938 1.70691406 10.60546875 1.84570312 C11.73662109 2.04389648 11.73662109 2.04389648 12.890625 2.24609375 C13.58188477 2.36654053 14.27314453 2.4869873 14.98535156 2.61108398 C17 3 17 3 18.78125 3.52734375 C22.03552611 4.22059623 25.29526116 4.23741605 28.609375 4.31640625 C29.33618469 4.33718735 30.06299438 4.35796844 30.81182861 4.37937927 C33.12445991 4.44455512 35.43720093 4.5036104 37.75 4.5625 C39.32162575 4.60571566 40.89324056 4.64933092 42.46484375 4.69335938 C46.30978453 4.80020356 50.15483524 4.90156024 54 5 C51.42099712 7.57900288 49.67467302 7.2478646 46.15925598 7.27789307 C45.36033432 7.2738446 44.56141266 7.26979614 43.73828125 7.265625 C42.5022541 7.26849518 42.5022541 7.26849518 41.24125671 7.27142334 C39.49359839 7.27278609 37.74592997 7.26908337 35.99829102 7.26074219 C33.34042138 7.25011168 30.6832382 7.26059885 28.02539062 7.2734375 C26.32551935 7.27211459 24.62564851 7.26954948 22.92578125 7.265625 C21.74258049 7.27169769 21.74258049 7.27169769 20.53547668 7.27789307 C15.68734503 7.2373465 11.65730792 6.49359105 7 5 C4.67212073 4.63049535 2.33954855 4.28647533 0 4 C0 2.68 0 1.36 0 0 Z " fill="#2FB842" transform="translate(219,395)"/>
<path d="M0 0 C5.905905 0.45155813 11.35020562 1.11673521 17 3 C17.90234375 3.2784375 18.8046875 3.556875 19.734375 3.84375 C29.01884542 6.88944929 29.01884542 6.88944929 32 12 C29.27040856 11.32554925 26.55317346 10.61591742 23.83984375 9.87890625 C15.27681702 7.57357685 6.782556 5.32231742 -2 4 C-0.68 3.34 0.64 2.68 2 2 C1.34 1.34 0.68 0.68 0 0 Z " fill="#1FC129" transform="translate(274,125)"/>
<path d="M0 0 C1.21171875 0.25265625 2.4234375 0.5053125 3.671875 0.765625 C7.17651569 1.72978379 10.04879092 3.05335919 13.25 4.75 C14.735 5.2140625 14.735 5.2140625 16.25 5.6875 C19.6741423 6.90021707 22.30421475 8.64586768 25.25 10.75 C23.25 11.75 23.25 11.75 20.66015625 10.89453125 C19.55542969 10.45496094 18.45070313 10.01539062 17.3125 9.5625 C8.53535214 6.20944553 -0.54526073 4.50655472 -9.75 2.75 C-9.42 1.76 -9.09 0.77 -8.75 -0.25 C-5.66612285 -1.79193858 -3.31968426 -0.71436244 0 0 Z " fill="#1EBE29" transform="translate(285.75,111.25)"/>
<path d="M0 0 C0.33 0 0.66 0 1 0 C1.12117188 0.556875 1.24234375 1.11375 1.3671875 1.6875 C1.53476562 2.450625 1.70234375 3.21375 1.875 4 C2.14183594 5.22976562 2.14183594 5.22976562 2.4140625 6.484375 C2.78288028 8.06783269 3.18937998 9.64343561 3.6484375 11.203125 C4.63364099 14.55537585 5.11645635 16.60072107 4.125 20 C3.75375 20.66 3.3825 21.32 3 22 C3.66 22 4.32 22 5 22 C4.5251065 26.11574371 3.9789756 29.36383344 2 33 C1.40312836 28.92613232 0.8153953 24.85106113 0.23608398 20.7746582 C0.03774473 19.38822952 -0.16308411 18.00215461 -0.36645508 16.61645508 C-0.658411 14.62415929 -0.94066459 12.63044929 -1.22265625 10.63671875 C-1.39547119 9.43748779 -1.56828613 8.23825684 -1.74633789 7.00268555 C-2 4 -2 4 -1 1 C-0.67 0.67 -0.34 0.34 0 0 Z " fill="#35BE4C" transform="translate(435,216)"/>
<path d="M0 0 C1.01384766 -0.00386719 2.02769531 -0.00773437 3.07226562 -0.01171875 C4.03455078 -0.01042969 4.99683594 -0.00914063 5.98828125 -0.0078125 C6.86653564 -0.00668457 7.74479004 -0.00555664 8.6496582 -0.00439453 C10.6875 0.125 10.6875 0.125 11.6875 1.125 C13.36933948 1.35787008 15.0587416 1.53764166 16.75 1.6875 C17.66910156 1.77128906 18.58820313 1.85507813 19.53515625 1.94140625 C20.60056641 2.03228516 20.60056641 2.03228516 21.6875 2.125 C21.6875 2.455 21.6875 2.785 21.6875 3.125 C8.1575 3.125 -5.3725 3.125 -19.3125 3.125 C-14.6977876 -1.4897124 -6.13922289 -0.02387255 0 0 Z " fill="#16BA1C" transform="translate(254.3125,90.875)"/>
<path d="M0 0 C2.060392 3.50965078 2.6474891 6.87260619 3.25 10.875 C3.44078125 12.06867188 3.6315625 13.26234375 3.828125 14.4921875 C4.00966839 18.19732313 3.39595883 20.59344376 2 24 C1.67 24 1.34 24 1 24 C0.46804688 21.1058144 -0.05086335 18.21028485 -0.5625 15.3125 C-0.71396484 14.49587891 -0.86542969 13.67925781 -1.02148438 12.83789062 C-2.36231723 5.13589723 -2.36231723 5.13589723 -1 1 C-0.67 0.67 -0.34 0.34 0 0 Z " fill="#34BB4A" transform="translate(383,222)"/>
<path d="M0 0 C4.40355323 1.7235042 8.73199794 3.60267646 13.0625 5.5 C13.76955078 5.80808594 14.47660156 6.11617188 15.20507812 6.43359375 C18.51178659 7.88047276 21.79530492 9.33522333 25 11 C20.97251619 12.61099352 17.9644754 11.391044 14 10 C12.33333333 9 10.66666667 8 9 7 C7.1746875 6.566875 7.1746875 6.566875 5.3125 6.125 C2 5 2 5 0.5625 2.375 C0.376875 1.59125 0.19125 0.8075 0 0 Z " fill="#29BA3A" transform="translate(170,416)"/>
<path d="M0 0 C0.33 0 0.66 0 1 0 C1.69721895 2.93550125 2.38309005 5.87287476 3.0625 8.8125 C3.26166016 9.64587891 3.46082031 10.47925781 3.66601562 11.33789062 C3.84970703 12.14033203 4.03339844 12.94277344 4.22265625 13.76953125 C4.39547119 14.50792236 4.56828613 15.24631348 4.74633789 16.00708008 C5 18 5 18 4 21 C1.69546494 19.77091464 0.27693746 18.68930038 -0.7109375 16.23046875 C-2.00636529 11.32098518 -3.02984736 6.44588748 -1 1.625 C-0.67 1.08875 -0.34 0.5525 0 0 Z " fill="#13C416" transform="translate(114,278)"/>
<path d="M0 0 C1.31419922 -0.020625 2.62839844 -0.04125 3.98242188 -0.0625 C5.23474609 -0.06765625 6.48707031 -0.0728125 7.77734375 -0.078125 C8.93355225 -0.0874707 10.08976074 -0.09681641 11.28100586 -0.10644531 C12.19889893 0.01118164 13.11679199 0.12880859 14.0625 0.25 C14.7225 1.24 15.3825 2.23 16.0625 3.25 C12.12984104 3.29947698 8.19730286 3.33575578 4.2644043 3.35986328 C2.26930382 3.37485495 0.27429054 3.40026731 -1.72070312 3.42578125 C-2.97431641 3.43222656 -4.22792969 3.43867187 -5.51953125 3.4453125 C-6.67686768 3.45578613 -7.8342041 3.46625977 -9.02661133 3.47705078 C-11.9375 3.25 -11.9375 3.25 -14.9375 1.25 C-12.16962904 -1.51787096 -3.73175962 0.01459857 0 0 Z " fill="#19CB20" transform="translate(257.9375,122.75)"/>
<path d="M0 0 C0.88397461 0.04890381 1.76794922 0.09780762 2.67871094 0.14819336 C8.90259805 0.50506762 15.11348317 0.95675736 21.3125 1.625 C21.3125 1.955 21.3125 2.285 21.3125 2.625 C8.4425 2.625 -4.4275 2.625 -17.6875 2.625 C-13.21970979 -1.84279021 -5.86759062 -0.35586156 0 0 Z " fill="#16B81C" transform="translate(253.6875,72.375)"/>
<path d="M0 0 C-1.33333333 0.66666667 -2.66666667 1.33333333 -4 2 C-4.92570801 2.53052979 -4.92570801 2.53052979 -5.87011719 3.07177734 C-8.28033992 4.12217474 -9.72350564 4.16260674 -12.328125 3.9765625 C-13.12734375 3.925 -13.9265625 3.8734375 -14.75 3.8203125 C-15.575 3.75585938 -16.4 3.69140625 -17.25 3.625 C-18.09046875 3.56828125 -18.9309375 3.5115625 -19.796875 3.453125 C-21.86529042 3.31209668 -23.9327646 3.15738212 -26 3 C-26 2.34 -26 1.68 -26 1 C-17.31320899 0.28038418 -8.71700174 -0.14368684 0 0 Z " fill="#35C74C" transform="translate(276,386)"/>
<path d="M0 0 C0.33 0 0.66 0 1 0 C1.66 5.28 2.32 10.56 3 16 C1.68 16 0.36 16 -1 16 C-2.0006709 10.03654233 -2.0662997 5.71271093 0 0 Z " fill="#12C413" transform="translate(128,271)"/>
<path d="M0 0 C4.03520597 1.58962659 8.01811282 3.28232318 12 5 C11.67 6.32 11.34 7.64 11 9 C10.46375 8.54625 9.9275 8.0925 9.375 7.625 C7.0031152 5.82263791 7.0031152 5.82263791 3.8125 5.0625 C2.884375 4.711875 1.95625 4.36125 1 4 C0.125 1.875 0.125 1.875 0 0 Z " fill="#29BB3A" transform="translate(180,400)"/>
<path d="M0 0 C4.97209562 1.76429199 9.43438061 4.3939166 14 7 C14 7.66 14 8.32 14 9 C12.58208592 8.54554036 11.16571954 8.08625056 9.75 7.625 C8.96109375 7.36976563 8.1721875 7.11453125 7.359375 6.8515625 C5.11257352 6.04063084 3.05847087 5.21302748 1 4 C0.25 1.875 0.25 1.875 0 0 Z " fill="#28BA38" transform="translate(181,379)"/>
<path d="M0 0 C1.45879493 2.79655447 2.65385052 5.58256419 3.6875 8.5625 C3.95949219 9.32691406 4.23148438 10.09132813 4.51171875 10.87890625 C5 13 5 13 4 16 C3.34 15.67 2.68 15.34 2 15 C1.26924352 12.6859378 0.59861742 10.35171131 0 8 C-0.33 8 -0.66 8 -1 8 C-1.04241723 5.66705225 -1.04092937 3.33297433 -1 1 C-0.67 0.67 -0.34 0.34 0 0 Z " fill="#15C71A" transform="translate(131,287)"/>
<path d="M0 0 C1.485 0.99 1.485 0.99 3 2 C3 2.66 3 3.32 3 4 C3.598125 4.103125 4.19625 4.20625 4.8125 4.3125 C7.28243264 5.08876455 8.32251235 6.07088921 10 8 C9.67 8.66 9.34 9.32 9 10 C6.03 8.35 3.06 6.7 0 5 C0 3.35 0 1.7 0 0 Z " fill="#24BD33" transform="translate(315,137)"/>
<path d="M0 0 C3.5875213 1.33250791 6.8364623 2.830717 10 5 C10 5.66 10 6.32 10 7 C10.99 7.33 11.98 7.66 13 8 C12.01 8.495 12.01 8.495 11 9 C8.8359375 8.22265625 8.8359375 8.22265625 6.375 7.0625 C5.55773437 6.68222656 4.74046875 6.30195312 3.8984375 5.91015625 C2.95871094 5.45962891 2.95871094 5.45962891 2 5 C2 4.34 2 3.68 2 3 C1.34 2.67 0.68 2.34 0 2 C0 1.34 0 0.68 0 0 Z " fill="#23BC30" transform="translate(312,120)"/>
<path d="M0 0 C3.63 0.66 7.26 1.32 11 2 C11 2.66 11 3.32 11 4 C10.34 4 9.68 4 9 4 C9 4.66 9 5.32 9 6 C8.34 6 7.68 6 7 6 C7 5.34 7 4.68 7 4 C5.68 4 4.36 4 3 4 C3 3.34 3 2.68 3 2 C2.01 2 1.02 2 0 2 C0 1.34 0 0.68 0 0 Z " fill="#2CBB3E" transform="translate(207,392)"/>
<path d="M0 0 C3.63 1.98 7.26 3.96 11 6 C11 6.66 11 7.32 11 8 C9.35 7.67 7.7 7.34 6 7 C6 6.34 6 5.68 6 5 C5.01 5 4.02 5 3 5 C3 4.34 3 3.68 3 3 C2.01 3 1.02 3 0 3 C0 2.01 0 1.02 0 0 Z " fill="#26B936" transform="translate(153,406)"/>
<path d="M0 0 C0.33 0.99 0.66 1.98 1 3 C1.66 3 2.32 3 3 3 C2.50639991 7.27786748 1.95216435 10.09567131 0 14 C0 9.38 0 4.76 0 0 Z " fill="#33B649" transform="translate(437,235)"/>
<path d="M0 0 C0.33 0 0.66 0 1 0 C0.67 5.28 0.34 10.56 0 16 C-0.33 16 -0.66 16 -1 16 C-1 13.69 -1 11.38 -1 9 C-1.66 9 -2.32 9 -3 9 C-2.01 6.03 -1.02 3.06 0 0 Z " fill="#10D10E" transform="translate(76,230)"/>
<path d="M0 0 C5.75 1.875 5.75 1.875 8 3 C8 3.66 8 4.32 8 5 C2.25 4.125 2.25 4.125 0 3 C0 2.01 0 1.02 0 0 Z " fill="#29BB39" transform="translate(193,369)"/>
<path d="M0 0 C1.85776765 3.13498292 2.20140476 5.37471432 2 9 C1.34 9 0.68 9 0 9 C-0.66 6.69 -1.32 4.38 -2 2 C-1.34 1.34 -0.68 0.68 0 0 Z " fill="#33BE48" transform="translate(426,186)"/>
<path d="M0 0 C0 2.64 0 5.28 0 8 C-0.66 8 -1.32 8 -2 8 C-2.33 5.69 -2.66 3.38 -3 1 C-1 0 -1 0 0 0 Z " fill="#34BE4A" transform="translate(434,208)"/>
<path d="M0 0 C2 1 4 2 6 3 C5.67 4.32 5.34 5.64 5 7 C4.67 6.01 4.34 5.02 4 4 C3.01 4 2.02 4 1 4 C0.67 2.68 0.34 1.36 0 0 Z " fill="#28BC37" transform="translate(168,393)"/>
</svg>
